<svg width="31" height="23" viewBox="0 0 31 23" fill="none" xmlns="http://www.w3.org/2000/svg">
<path d="M26.8197 0.377322C26.4962 0.168 26.1262 0.0413642 25.7422 0.00854681C25.3582 -0.0242706 24.9721 0.0377351 24.6177 0.189113L13.0052 4.76258C12.7303 4.87447 12.4363 4.932 12.1395 4.93197H4.70522C4.08127 4.93197 3.48287 5.17983 3.04167 5.62103C2.60047 6.06223 2.35261 6.66063 2.35261 7.28458V7.47279H0V13.119H2.35261V13.3637C2.36735 13.9778 2.62171 14.5618 3.06132 14.9909C3.50093 15.4199 4.09093 15.66 4.70522 15.6599L7.52835 21.6449C7.71951 22.0479 8.02047 22.3889 8.39667 22.6286C8.77287 22.8683 9.20904 22.997 9.6551 23H10.8408C11.4615 22.995 12.0551 22.745 12.4922 22.3043C12.9293 21.8637 13.1746 21.2681 13.1746 20.6474V15.8857L24.6177 20.4592C24.8992 20.5712 25.1993 20.6287 25.5023 20.6286C25.9722 20.621 26.4299 20.4772 26.8197 20.2145C27.1293 20.0055 27.3846 19.7258 27.5646 19.3985C27.7446 19.0712 27.8441 18.7058 27.8549 18.3324V2.31587C27.8532 1.9329 27.758 1.55613 27.5776 1.2183C27.3972 0.88047 27.137 0.591786 26.8197 0.377322ZM10.822 7.28458V13.3637H4.70522V7.28458H10.822ZM10.822 20.6474H9.63628L7.32132 15.6599H10.822V20.6474ZM13.871 13.646C13.6475 13.5318 13.4145 13.4374 13.1746 13.3637V7.15283C13.4122 7.10381 13.6452 7.03455 13.871 6.9458L25.5023 2.31587V18.276L13.871 13.646ZM27.9113 7.94331V12.6485C28.5353 12.6485 29.1337 12.4007 29.5749 11.9595C30.0161 11.5183 30.2639 10.9199 30.2639 10.2959C30.2639 9.67197 30.0161 9.07357 29.5749 8.63237C29.1337 8.19117 28.5353 7.94331 27.9113 7.94331Z" fill="white"/>
</svg>
